<svg  viewBox="0 0 170 110" fill="none" xmlns="http://www.w3.org/2000/svg">
<g clip-path="url(#clip0_3039_30971)">
<path d="M76.0459 0.193445C31.3453 -3.0077 66.1841 35.2568 27.107 39.9507C-65.4231 65.0678 104.284 146.799 157.693 90.7599C202.074 44.0807 115.062 2.91359 76.0459 0.193445Z" fill="#C4D9F1"/>
<path d="M37.2448 75.3181V65.1895C37.2448 65.1895 33.139 65.8253 31.6269 62.7844C29.8168 59.1355 28.6745 53.6841 31.7152 53.5791C34.7559 53.474 34.2427 57.4492 35.3851 58.2288C36.6102 59.0857 37.1455 57.6759 37.1455 55.9067V42.2562C37.1455 39.1325 45.2082 36.9597 45.2082 42.4774V53.2474C45.2082 55.8846 47.6363 55.293 47.6253 53.2474C47.6143 51.2017 47.7577 51.3344 47.7577 48.559C47.7577 45.7836 52.4485 45.297 52.4485 49.0234C52.4485 52.7498 53.0666 57.98 50.9033 60.2412C48.74 62.5025 45.2082 62.3034 45.2082 62.3034V76.0534L37.2448 75.3181Z" fill="#7EAC8E"/>
<path d="M56.1299 72.5151V92.7503C56.1306 93.1 56.0625 93.4464 55.9294 93.7697C55.7963 94.093 55.6009 94.3868 55.3544 94.6343C55.1078 94.8819 54.8149 95.0782 54.4925 95.2122C54.1701 95.3462 53.8245 95.4152 53.4754 95.4152H36.8424L35.9981 95.0337C34.2652 94.2449 32.5784 93.434 30.9375 92.601L26.9807 73.068C26.8988 72.6779 26.9054 72.2743 27.0002 71.8871C27.0949 71.5 27.2754 71.1391 27.5281 70.8312C27.7809 70.5233 28.0994 70.2763 28.4603 70.1084C28.8212 69.9405 29.2152 69.8561 29.6131 69.8613H53.503C54.2013 69.8686 54.8686 70.1512 55.3602 70.6479C55.8519 71.1447 56.1285 71.8155 56.1299 72.5151V72.5151Z" fill="#FFCF8F"/>
<path d="M138.975 92.1145H48.9775L59.369 35.6549C59.5542 34.6339 60.0918 33.7106 60.8878 33.0466C61.6837 32.3826 62.6874 32.02 63.7232 32.0225H144.714C145.365 32.02 146.008 32.1618 146.598 32.4376C147.188 32.7134 147.709 33.1164 148.125 33.6178C148.541 34.1192 148.842 34.7065 149.005 35.3378C149.168 35.9691 149.189 36.6286 149.068 37.2693L138.975 92.1145Z" fill="#3C76BF"/>
<path opacity="0.99" d="M136.872 93.0654L50.3848 93.3253L60.401 38.9058C60.7707 36.8767 62.5367 35.1462 64.6006 35.1462H142.661C145.332 35.1462 147.076 37.5734 146.601 40.1995L136.872 93.0654Z" fill="white"/>
<path d="M125.636 95.4152L136.392 95.3323C136.958 95.3273 137.505 95.1247 137.938 94.7594C138.371 94.3941 138.663 93.8889 138.765 93.3309L139.422 89.6708L125.073 89.5658L125.636 95.4152Z" fill="#305E97"/>
<path d="M129.328 95.4152H39.1379C38.861 95.4155 38.59 95.3351 38.3578 95.184C38.1256 95.0328 37.9423 94.8174 37.83 94.5638L36.5055 91.5783C36.4105 91.3601 36.371 91.1216 36.3907 90.8844C36.4103 90.6471 36.4885 90.4184 36.6182 90.2189C36.7478 90.0194 36.9249 89.8553 37.1335 89.7413C37.3422 89.6273 37.5758 89.567 37.8134 89.5658H130.653C130.89 89.5665 131.124 89.6266 131.333 89.7406C131.541 89.8546 131.718 90.0189 131.848 90.2187C131.977 90.4185 132.055 90.6475 132.073 90.8849C132.092 91.1223 132.051 91.3606 131.955 91.5783L130.636 94.5638C130.523 94.817 130.34 95.032 130.108 95.1831C129.876 95.3342 129.605 95.4148 129.328 95.4152V95.4152Z" fill="#3C76BF"/>
<path d="M93.3522 92.7504H75.1133C74.4488 92.7497 73.7929 92.6004 73.1933 92.3135C72.5937 92.0266 72.0657 91.6092 71.6476 91.0917L70.4004 89.5658H98.043L96.8013 91.0917C96.3847 91.6067 95.8593 92.0226 95.2628 92.3094C94.6664 92.5962 94.0138 92.7468 93.3522 92.7504V92.7504Z" fill="#305E97"/>
<path d="M78.4855 70.1543C82.9004 79.0445 96.2057 79.6748 104.191 76.2359C110.554 73.5047 115.935 67.1577 114.676 64.0395C113.683 61.5847 109.401 63.0886 104.02 59.1244C100.223 56.3214 100.792 54.425 97.2874 52.0366C94.1252 49.8804 88.5514 47.9398 84.0428 49.9744C77.5915 52.9212 75.1137 63.3429 78.4855 70.1543Z" fill="#BED8F3"/>
<path d="M111.216 54.6738L109.08 52.3959C108.865 52.1675 108.571 52.0293 108.258 52.0089C107.942 51.9909 107.632 52.0959 107.391 52.302L92.6567 65.0181L87.0056 58.9752C86.7917 58.7545 86.5028 58.6223 86.1961 58.6049C85.8895 58.5875 85.5876 58.6861 85.3501 58.8812L82.9771 60.9213C82.8592 61.0186 82.7628 61.1393 82.6939 61.2759C82.625 61.4124 82.5851 61.5618 82.5768 61.7146C82.5685 61.8674 82.592 62.0202 82.6457 62.1635C82.6994 62.3067 82.7821 62.4372 82.8888 62.5467L91.5033 71.7466C91.7201 71.9743 92.0154 72.1107 92.3291 72.1282C92.6427 72.1456 92.9513 72.0428 93.192 71.8406L111.172 56.2993C111.288 56.2003 111.383 56.0787 111.451 55.9419C111.52 55.8051 111.56 55.6558 111.569 55.5031C111.571 55.3478 111.541 55.1936 111.48 55.0508C111.42 54.9079 111.329 54.7794 111.216 54.6738Z" fill="#7FAE90"/>
<path d="M153.097 95.0337C151.329 96.4892 149.471 97.8317 147.534 99.0531H45.5783C42.2672 97.8036 39.0737 96.473 35.998 95.0613L153.097 95.0337Z" fill="#20416B"/>
</g>
<defs>
<clipPath id="clip0_3039_30971">
<rect width="170" height="110" fill="white"/>
</clipPath>
</defs>
</svg>
